<svg width="20" height="21" viewBox="0 0 20 21" fill="none" xmlns="http://www.w3.org/2000/svg">
<mask id="mask0_58_446" style="mask-type:luminance" maskUnits="userSpaceOnUse" x="0" y="0" width="20" height="21">
<path d="M20 0.981277H0V20.9813H20V0.981277Z" fill="white"/>
</mask>
<g mask="url(#mask0_58_446)">
<path d="M19.3425 7.01128L18.2091 2.53461C18.1382 2.2476 17.9732 1.99261 17.7405 1.81031C17.5077 1.62801 17.2206 1.52889 16.925 1.52878H3.04747C2.75085 1.52878 2.46268 1.62769 2.22859 1.80986C1.99449 1.99204 1.82783 2.24707 1.75497 2.53461L0.637473 6.98711C0.515561 7.54597 0.524171 8.12542 0.662631 8.68042C0.80109 9.23541 1.06567 9.751 1.43581 10.1871L1.48331 10.2429V19.1004C1.4846 19.4522 1.62436 19.7894 1.87233 20.0389C2.12029 20.2884 2.45654 20.4303 2.80831 20.4338H17.1641C17.5163 20.4316 17.8533 20.2901 18.1016 20.0403C18.3498 19.7905 18.4891 19.4526 18.4891 19.1004V10.2429C18.5883 10.145 18.6815 10.0412 18.7683 9.93211C19.0725 9.5172 19.2816 9.04044 19.3808 8.53566C19.48 8.03088 19.4669 7.51044 19.3425 7.01128ZM7.56414 2.44544H12.4958V7.86211C12.4923 8.51424 12.2311 9.13853 11.7692 9.59888C11.3073 10.0592 10.6821 10.3183 10.03 10.3196H10.0166C9.69231 10.3181 9.37146 10.2527 9.07242 10.1271C8.77338 10.0016 8.502 9.81833 8.27379 9.58787C8.04558 9.35742 7.865 9.08426 7.74238 8.784C7.61976 8.48374 7.55749 8.16227 7.55914 7.83794L7.56414 2.44544ZM1.47581 7.78544C1.47607 7.59184 1.50014 7.39901 1.54747 7.21128L2.66497 2.75878C2.68697 2.67418 2.73502 2.59864 2.80232 2.54286C2.86962 2.48708 2.95276 2.45387 3.03997 2.44794H6.59997V7.84128C6.59631 8.17768 6.52642 8.51007 6.3943 8.81946C6.26217 9.12885 6.0704 9.40919 5.82994 9.64447C5.58947 9.87975 5.30502 10.0654 4.99282 10.1907C4.68062 10.3161 4.34679 10.3787 4.01039 10.375C3.67399 10.3714 3.3416 10.3015 3.03221 10.1693C2.72281 10.0372 2.44248 9.84546 2.2072 9.60499C1.97191 9.36453 1.7863 9.08008 1.66095 8.76788C1.5356 8.45568 1.47214 8.12185 1.47581 7.78544ZM11.7941 19.5079H8.17914V14.5763H11.7941V19.5079ZM17.5316 19.1013C17.535 19.1522 17.5281 19.2033 17.5114 19.2516C17.4947 19.2998 17.4685 19.3442 17.4343 19.3821C17.4001 19.42 17.3586 19.4507 17.3124 19.4723C17.2661 19.4939 17.216 19.5061 17.165 19.5079H12.7591V14.0913C12.7594 13.9656 12.7101 13.8448 12.622 13.7551C12.5339 13.6655 12.414 13.6141 12.2883 13.6121H7.69247C7.56546 13.6123 7.44371 13.6629 7.3539 13.7527C7.26408 13.8425 7.21353 13.9643 7.21331 14.0913V19.5079H2.80831C2.75766 19.5059 2.70796 19.4936 2.6622 19.4718C2.61643 19.45 2.57554 19.4192 2.54198 19.3812C2.50843 19.3432 2.48291 19.2988 2.46695 19.2507C2.451 19.2026 2.44494 19.1518 2.44914 19.1013V10.9688L2.72831 11.0888C3.10263 11.2476 3.50279 11.3369 3.90914 11.3521H4.05247C4.6098 11.3509 5.15885 11.2171 5.65426 10.9618C6.14967 10.7065 6.57724 10.337 6.90164 9.88378L7.06164 9.65211L7.22831 9.88378C7.4816 10.2498 7.8046 10.5623 8.1788 10.8034C8.55301 11.0445 8.97108 11.2094 9.4091 11.2888C9.84711 11.3681 10.2965 11.3603 10.7315 11.2658C11.1665 11.1713 11.5785 10.9919 11.9441 10.7379C12.2774 10.5124 12.5645 10.2253 12.79 9.89211L12.9566 9.66045L13.1166 9.89211C13.5601 10.5071 14.1912 10.9616 14.9151 11.187C15.6391 11.4124 16.4166 11.3967 17.1308 11.1421C17.2687 11.0858 17.4021 11.0192 17.53 10.9429L17.5316 19.1013ZM18.1225 9.18461C17.7649 9.76661 17.1909 10.1829 16.5266 10.3421C16.3443 10.3894 16.1567 10.4135 15.9683 10.4138C15.6328 10.4145 15.3005 10.3491 14.9904 10.2212C14.6803 10.0933 14.3985 9.90538 14.1611 9.66833C13.9238 9.43127 13.7355 9.1497 13.6072 8.83975C13.4789 8.5298 13.413 8.19757 13.4133 7.86211V2.44544H16.9133C17.0027 2.44721 17.0889 2.47874 17.1583 2.53504C17.2278 2.59135 17.2764 2.6692 17.2966 2.75628L18.4216 7.23294C18.5029 7.56141 18.5183 7.90273 18.4668 8.23716C18.4153 8.57158 18.298 8.89248 18.1216 9.18128L18.1225 9.18461Z" fill="#9D9D9D"/>
</g>
</svg>
